<svg width="20" height="20" viewBox="0 0 20 20" fill="none" xmlns="http://www.w3.org/2000/svg">
<path d="M10 2C8.41775 2 6.87103 2.46919 5.55544 3.34824C4.23985 4.22729 3.21447 5.47672 2.60897 6.93853C2.00347 8.40034 1.84504 10.0089 2.15372 11.5607C2.4624 13.1126 3.22433 14.538 4.34315 15.6569C5.46197 16.7757 6.88743 17.5376 8.43928 17.8463C9.99113 18.155 11.5997 17.9965 13.0615 17.391C14.5233 16.7855 15.7727 15.7602 16.6518 14.4446C17.5308 13.129 18 11.5822 18 10C17.9977 7.87897 17.1541 5.84547 15.6543 4.34568C14.1545 2.84589 12.121 2.00229 10 2ZM12.9673 9.81133C12.9401 9.86791 12.8974 9.91564 12.8442 9.94901C12.791 9.98239 12.7295 10.0001 12.6667 10H10.6667V13.3333C10.6667 13.5101 10.5964 13.6797 10.4714 13.8047C10.3464 13.9298 10.1768 14 10 14C9.82319 14 9.65362 13.9298 9.5286 13.8047C9.40357 13.6797 9.33334 13.5101 9.33334 13.3333V10H7.33334C7.27056 10 7.20904 9.98234 7.15588 9.94895C7.10271 9.91557 7.06005 9.86785 7.03282 9.81128C7.00558 9.75472 6.99487 9.69161 7.00192 9.62923C7.00897 9.56685 7.03349 9.50772 7.07267 9.45867L9.73934 6.12533C9.77169 6.08793 9.81172 6.05793 9.85669 6.03737C9.90167 6.0168 9.95055 6.00616 10 6.00616C10.0495 6.00616 10.0983 6.0168 10.1433 6.03737C10.1883 6.05793 10.2283 6.08793 10.2607 6.12533L12.9273 9.45867C12.9665 9.50771 12.9911 9.56684 12.9982 9.62923C13.0053 9.69163 12.9946 9.75475 12.9673 9.81133Z" fill="currentColor"/>
</svg>
