<svg width="20" height="20" viewBox="0 0 20 20" fill="none" xmlns="http://www.w3.org/2000/svg">
<g clip-path="url(#clip0_5137_103)">
<path d="M17.5 14.7222C16.2722 14.7222 15.2778 13.7278 15.2778 12.5V7.22222C15.2778 4.30778 12.9144 1.94444 10 1.94444C7.08556 1.94444 4.72222 4.30778 4.72222 7.22222V12.5C4.72222 13.7278 3.72778 14.7222 2.5 14.7222H17.5Z" stroke="currentColor" stroke-width="1.5" stroke-linecap="round" stroke-linejoin="round"/>
<path d="M11.7645 16.8722C11.6589 16.7422 11.5011 16.6667 11.3333 16.6667H8.66779C8.50002 16.6667 8.34224 16.7422 8.23668 16.8722C8.13113 17.0022 8.09002 17.1733 8.12446 17.3367C8.31668 18.25 9.08891 18.8889 10.0011 18.8889C10.9134 18.8889 11.6856 18.25 11.8778 17.3367C11.9122 17.1733 11.87 17.0022 11.7645 16.8722Z" fill="currentColor"/>
</g>
<defs>
<clipPath id="clip0_5137_103">
<rect width="20" height="20" fill="white"/>
</clipPath>
</defs>
</svg>
