<svg width="20" height="20" viewBox="0 0 20 20" fill="none" xmlns="http://www.w3.org/2000/svg">
<g clip-path="url(#clip0_3642_1191)">
<path d="M6.38892 4.16667V1.94444" stroke="currentColor" stroke-width="1.5" stroke-linecap="round" stroke-linejoin="round"/>
<path d="M13.6111 4.16667V1.94444" stroke="currentColor" stroke-width="1.5" stroke-linecap="round" stroke-linejoin="round"/>
<path d="M15.2778 4.16666H4.72222C3.49492 4.16666 2.5 5.16159 2.5 6.38889V15.8333C2.5 17.0606 3.49492 18.0556 4.72222 18.0556H15.2778C16.5051 18.0556 17.5 17.0606 17.5 15.8333V6.38889C17.5 5.16159 16.5051 4.16666 15.2778 4.16666Z" stroke="currentColor" stroke-width="1.5" stroke-linecap="round" stroke-linejoin="round"/>
<path d="M2.5 8.05555H17.5" stroke="currentColor" stroke-width="1.5" stroke-linecap="round" stroke-linejoin="round"/>
<path d="M10 10.2778C9.3878 10.2778 8.88892 10.7767 8.88892 11.3889C8.88892 12.0011 9.3878 12.5 10 12.5C10.6122 12.5 11.1111 12.0011 11.1111 11.3889C11.1111 10.7767 10.6122 10.2778 10 10.2778Z" fill="currentColor"/>
<path d="M13.8889 12.5C14.5012 12.5 15.0001 12.0011 15.0001 11.3889C15.0001 10.7767 14.5012 10.2778 13.8889 10.2778C13.2767 10.2778 12.7778 10.7767 12.7778 11.3889C12.7778 12.0011 13.2767 12.5 13.8889 12.5Z" fill="currentColor"/>
<path d="M10 13.6111C9.3878 13.6111 8.88892 14.11 8.88892 14.7222C8.88892 15.3344 9.3878 15.8333 10 15.8333C10.6122 15.8333 11.1111 15.3344 11.1111 14.7222C11.1111 14.11 10.6122 13.6111 10 13.6111Z" fill="currentColor"/>
<path d="M6.11111 13.6111C5.49889 13.6111 5 14.11 5 14.7222C5 15.3344 5.49889 15.8333 6.11111 15.8333C6.72333 15.8333 7.22222 15.3344 7.22222 14.7222C7.22222 14.11 6.72333 13.6111 6.11111 13.6111Z" fill="currentColor"/>
<path d="M13.8889 13.6111C13.2767 13.6111 12.7778 14.11 12.7778 14.7222C12.7778 15.3344 13.2767 15.8333 13.8889 15.8333C14.5012 15.8333 15.0001 15.3344 15.0001 14.7222C15.0001 14.11 14.5012 13.6111 13.8889 13.6111Z" fill="currentColor"/>
</g>
<defs>
<clipPath id="clip0_3642_1191">
<rect width="20" height="20" fill="white"/>
</clipPath>
</defs>
</svg>
