<svg width="20" height="20" viewBox="0 0 20 20" fill="none" xmlns="http://www.w3.org/2000/svg">
<path fill-rule="evenodd" clip-rule="evenodd" d="M2 10C2 5.589 5.589 2 10 2C14.411 2 18 5.589 18 10C18 14.411 14.411 18 10 18C5.589 18 2 14.411 2 10ZM13.8584 8.31335C14.1542 8.02337 14.1589 7.54852 13.8689 7.25274C13.5789 6.95696 13.1041 6.95226 12.8083 7.24224L8.80312 11.1689L7.19488 9.5734C6.90082 9.28167 6.42595 9.28357 6.13423 9.57762C5.8425 9.87168 5.8444 10.3466 6.13845 10.6383L8.27179 12.7547C8.56296 13.0435 9.03218 13.0449 9.32505 12.7578L13.8584 8.31335Z" fill="currentColor"/>
</svg>
