<svg width="20" height="20" viewBox="0 0 20 20" fill="none" xmlns="http://www.w3.org/2000/svg">
<g clip-path="url(#clip0_3642_1144)">
<path d="M10 18.0556C14.449 18.0556 18.0556 14.449 18.0556 10C18.0556 5.55105 14.449 1.94446 10 1.94446C5.55105 1.94446 1.94446 5.55105 1.94446 10C1.94446 14.449 5.55105 18.0556 10 18.0556Z" stroke="currentColor" stroke-width="1.5" stroke-linecap="round" stroke-linejoin="round"/>
<path d="M13.2579 12.9478C13.099 13.1978 12.829 13.3333 12.5545 13.3333C12.4012 13.3333 12.2467 13.2911 12.1079 13.2033L9.0523 11.2589C8.8123 11.1056 8.66675 10.8411 8.66675 10.5556V6.94445C8.66675 6.48445 9.04008 6.11111 9.50008 6.11111C9.96008 6.11111 10.3334 6.48445 10.3334 6.94445V10.0978L13.0034 11.7967C13.3912 12.0444 13.5045 12.5589 13.2579 12.9478Z" fill="currentColor"/>
</g>
<defs>
<clipPath id="clip0_3642_1144">
<rect width="20" height="20" fill="white"/>
</clipPath>
</defs>
</svg>
