<svg width="20" height="20" viewBox="0 0 20 20" fill="none" xmlns="http://www.w3.org/2000/svg">
<g clip-path="url(#clip0_3642_1169)">
<path d="M11.6667 10C11.6667 10.92 10.9184 11.6667 10 11.6667C9.08171 11.6667 8.33337 10.92 8.33337 10C8.33337 9.08 9.08171 8.33334 10 8.33334C10.9184 8.33334 11.6667 9.08 11.6667 10Z" fill="currentColor"/>
<path d="M11.6667 15.5556C11.6667 16.4756 10.9184 17.2222 10 17.2222C9.08171 17.2222 8.33337 16.4756 8.33337 15.5556C8.33337 14.6356 9.08171 13.8889 10 13.8889C10.9184 13.8889 11.6667 14.6356 11.6667 15.5556Z" fill="currentColor"/>
<path d="M11.6667 4.44445C11.6667 5.36445 10.9184 6.11111 10 6.11111C9.08171 6.11111 8.33337 5.36445 8.33337 4.44445C8.33337 3.52445 9.08171 2.77778 10 2.77778C10.9184 2.77778 11.6667 3.52445 11.6667 4.44445Z" fill="currentColor"/>
</g>
<defs>
<clipPath id="clip0_3642_1169">
<rect width="20" height="20" fill="white"/>
</clipPath>
</defs>
</svg>
