<svg width="20" height="20" viewBox="0 0 20 20" fill="none" xmlns="http://www.w3.org/2000/svg">
<path d="M2.4178 11.5328C2.13736 11.0664 1.83484 10.0001 1.83484 10.0001C1.83484 10.0001 2.13715 8.93292 2.4178 8.46615C3.53996 6.46679 5.95924 3 9.99994 3C14.0406 3 16.4599 6.46563 17.5821 8.46615C17.8627 8.93292 18.165 10.0001 18.165 10.0001C18.165 10.0001 17.8625 11.0664 17.5821 11.5328C16.4599 13.5322 14.0406 16.999 9.99994 16.999C5.95924 16.999 3.53996 13.6663 2.4178 11.5328Z" stroke="currentColor" stroke-width="1.5" stroke-linecap="round" stroke-linejoin="round"/>
<path d="M9.99951 7.25064C11.5179 7.25064 12.7493 8.48138 12.7495 9.99966C12.7495 11.5181 11.518 12.7497 9.99951 12.7497C8.48123 12.7494 7.25049 11.518 7.25049 9.99966C7.25072 8.48152 8.48137 7.25087 9.99951 7.25064Z" stroke="currentColor" stroke-width="1.5"/>
</svg>
