<svg width="20" height="20" viewBox="0 0 20 20" fill="none" xmlns="http://www.w3.org/2000/svg">
<g clip-path="url(#clip0_5269_30)">
<path fill-rule="evenodd" clip-rule="evenodd" d="M10 18.0556C14.449 18.0556 18.0556 14.449 18.0556 10C18.0556 5.55105 14.449 1.94446 10 1.94446C5.55105 1.94446 1.94446 5.55105 1.94446 10C1.94446 14.449 5.55105 18.0556 10 18.0556ZM10 9.25C10.4142 9.25 10.75 9.58579 10.75 10V14.4444C10.75 14.8587 10.4142 15.1944 10 15.1944C9.58579 15.1944 9.25 14.8587 9.25 14.4444V10C9.25 9.58579 9.58579 9.25 10 9.25ZM8.88892 6.38891C8.88892 7.00113 9.38669 7.50002 10 7.50002C10.6134 7.50002 11.1111 7.00113 11.1111 6.38891C11.1111 5.77669 10.6134 5.2778 10 5.2778C9.38669 5.2778 8.88892 5.77669 8.88892 6.38891Z" fill="currentColor"/>
</g>
<defs>
<clipPath id="clip0_5269_30">
<rect width="20" height="20" fill="white"/>
</clipPath>
</defs>
</svg>
