<svg width="20" height="20" viewBox="0 0 20 20" fill="none" xmlns="http://www.w3.org/2000/svg">
<g clip-path="url(#clip0_3642_1153)">
<path fill-rule="evenodd" clip-rule="evenodd" d="M1.11108 10C1.11108 5.09889 5.09886 1.11111 9.99997 1.11111C14.9011 1.11111 18.8889 5.09889 18.8889 10C18.8889 14.9011 14.9011 18.8889 9.99997 18.8889C5.09886 18.8889 1.11108 14.9011 1.11108 10ZM6.88881 7.27778C6.88881 6.81754 7.2619 6.44445 7.72214 6.44445C8.18238 6.44445 8.55547 6.81754 8.55547 7.27778V12.8333C8.55547 13.2936 8.18238 13.6667 7.72214 13.6667C7.2619 13.6667 6.88881 13.2936 6.88881 12.8333V7.27778ZM11.3333 7.27778C11.3333 6.81754 11.7063 6.44445 12.1666 6.44445C12.6268 6.44445 12.9999 6.81754 12.9999 7.27778V12.8333C12.9999 13.2936 12.6268 13.6667 12.1666 13.6667C11.7063 13.6667 11.3333 13.2936 11.3333 12.8333V7.27778Z" fill="currentColor"/>
</g>
<defs>
<clipPath id="clip0_3642_1153">
<rect width="20" height="20" fill="white"/>
</clipPath>
</defs>
</svg>
