<svg width="20" height="20" viewBox="0 0 20 20" fill="none" xmlns="http://www.w3.org/2000/svg">
<g clip-path="url(#clip0_3642_1193)">
<path d="M12.6077 11.8289L11.34 13.4133C9.37663 12.2589 7.73996 10.6233 6.58663 8.66001L8.17108 7.39223C8.5533 7.08667 8.68108 6.56112 8.48219 6.11445L7.03774 2.86223C6.8233 2.38001 6.29219 2.12445 5.78219 2.25667L3.03219 2.97001C2.50108 3.1089 2.15774 3.62334 2.2333 4.16667C3.22441 11.2267 8.7733 16.7756 15.8344 17.7678C16.3777 17.8422 16.8922 17.4989 17.03 16.9689L17.7433 14.2189C17.8755 13.7089 17.62 13.1789 17.1389 12.9645L13.8866 11.52C13.44 11.3211 12.9155 11.4489 12.6089 11.83L12.6077 11.8289Z" stroke="currentColor" stroke-width="1.5" stroke-linecap="round" stroke-linejoin="round"/>
</g>
<defs>
<clipPath id="clip0_3642_1193">
<rect width="20" height="20" fill="white"/>
</clipPath>
</defs>
</svg>
