<svg width="20" height="20" viewBox="0 0 20 20" fill="none" xmlns="http://www.w3.org/2000/svg">
<g clip-path="url(#clip0_3642_1154)">
<path fill-rule="evenodd" clip-rule="evenodd" d="M1.11108 10C1.11108 5.09889 5.09886 1.11111 9.99997 1.11111C14.9011 1.11111 18.8889 5.09889 18.8889 10C18.8889 14.9011 14.9011 18.8889 9.99997 18.8889C5.09886 18.8889 1.11108 14.9011 1.11108 10ZM14.0566 10C14.0566 10.5 13.7988 10.9478 13.3677 11.2L13.3688 11.2011L9.31217 13.5678C9.09661 13.6922 8.85439 13.7556 8.61217 13.7556C8.37217 13.7556 8.13328 13.6933 7.91995 13.5711C7.48995 13.3233 7.22328 12.8622 7.22328 12.3667V7.63445C7.22328 7.1389 7.48995 6.67779 7.91995 6.43001C8.34884 6.18334 8.88106 6.18334 9.31106 6.43445L13.3677 8.80001C13.7988 9.05223 14.0566 9.50001 14.0566 10Z" fill="currentColor"/>
</g>
<defs>
<clipPath id="clip0_3642_1154">
<rect width="20" height="20" fill="white"/>
</clipPath>
</defs>
</svg>
