<svg width="20" height="20" viewBox="0 0 20 20" fill="none" xmlns="http://www.w3.org/2000/svg">
<g clip-path="url(#clip0_5138_48)">
<path d="M6.38892 5.83335V3.05557C6.38892 2.44224 6.88669 1.94446 7.50003 1.94446H12.5C13.1134 1.94446 13.6111 2.44224 13.6111 3.05557V5.83335" stroke="currentColor" stroke-width="1.5" stroke-linecap="round" stroke-linejoin="round"/>
<path d="M6.38889 14.7222H4.72222C3.49444 14.7222 2.5 13.7278 2.5 12.5V8.05557C2.5 6.82779 3.49444 5.83334 4.72222 5.83334H15.2778C16.5056 5.83334 17.5 6.82779 17.5 8.05557V12.5C17.5 13.7278 16.5056 14.7222 15.2778 14.7222H13.6111" stroke="currentColor" stroke-width="1.5" stroke-linecap="round" stroke-linejoin="round"/>
<path d="M13.6111 10.8333V16.9445C13.6111 17.5578 13.1134 18.0556 12.5 18.0556H7.50003C6.88669 18.0556 6.38892 17.5578 6.38892 16.9445V10.8333H13.6111Z" stroke="currentColor" stroke-width="1.5" stroke-linecap="round" stroke-linejoin="round"/>
</g>
<defs>
<clipPath id="clip0_5138_48">
<rect width="20" height="20" fill="white"/>
</clipPath>
</defs>
</svg>
