<svg width="20" height="20" viewBox="0 0 20 20" fill="none" xmlns="http://www.w3.org/2000/svg">
<g clip-path="url(#clip0_3642_1105)">
<path fill-rule="evenodd" clip-rule="evenodd" d="M1.11108 10C1.11108 5.09889 5.09886 1.11111 9.99997 1.11111C14.9011 1.11111 18.8889 5.09889 18.8889 10C18.8889 14.9011 14.9011 18.8889 9.99997 18.8889C5.09886 18.8889 1.11108 14.9011 1.11108 10ZM8.98852 13.6534C8.98852 14.2741 9.5 14.7778 10.1302 14.7778C10.7604 14.7778 11.2719 14.2741 11.2719 13.6534C11.2719 13.0328 10.7604 12.5291 10.1302 12.5291C9.5 12.5291 8.98852 13.0328 8.98852 13.6534ZM11.0271 10.8957C11.0856 10.5916 11.2281 10.4693 11.6537 10.1716H11.6528C12.1889 9.79651 13 9.22895 13 7.88514C13 6.22741 11.6646 5.33334 10.4088 5.33334C9.04241 5.33334 7.95552 6.0691 7.49975 7.30228C7.32713 7.7691 7.57191 8.2854 8.04594 8.4554C8.51997 8.6263 9.04515 8.38524 9.21686 7.91752C9.2881 7.72323 9.50639 7.13228 10.4088 7.13228C10.5878 7.13228 11.1733 7.18715 11.1733 7.88514C11.1733 8.2854 11.0627 8.37805 10.5942 8.70635C10.1311 9.03016 9.43058 9.52127 9.23147 10.5647C9.13922 11.0522 9.46529 11.5226 9.96124 11.6143C10.0179 11.6251 10.0745 11.6296 10.1302 11.6296C10.5613 11.6296 10.9449 11.3283 11.0271 10.8957Z" fill="currentColor"/>
</g>
<defs>
<clipPath id="clip0_3642_1105">
<rect width="20" height="20" fill="white"/>
</clipPath>
</defs>
</svg>
