<svg width="20" height="20" viewBox="0 0 20 20" fill="none" xmlns="http://www.w3.org/2000/svg">
<g clip-path="url(#clip0_3642_1203)">
<path d="M10 8.05557C11.6876 8.05557 13.0556 6.68755 13.0556 5.00001C13.0556 3.31248 11.6876 1.94446 10 1.94446C8.31248 1.94446 6.94446 3.31248 6.94446 5.00001C6.94446 6.68755 8.31248 8.05557 10 8.05557Z" stroke="currentColor" stroke-width="1.5" stroke-linecap="round" stroke-linejoin="round"/>
<path d="M15.2911 17.24C16.2467 16.9389 16.7489 15.8833 16.3434 14.9678C15.2656 12.5333 12.8334 10.8333 10 10.8333C7.16669 10.8333 4.73447 12.5333 3.65669 14.9678C3.25114 15.8845 3.75336 16.9389 4.70891 17.24C6.07003 17.6689 7.87114 18.0556 10 18.0556C12.1289 18.0556 13.93 17.6689 15.2911 17.24Z" stroke="currentColor" stroke-width="1.5" stroke-linecap="round" stroke-linejoin="round"/>
</g>
<defs>
<clipPath id="clip0_3642_1203">
<rect width="20" height="20" fill="white"/>
</clipPath>
</defs>
</svg>
