<svg width="20" height="20" viewBox="0 0 20 20" fill="none" xmlns="http://www.w3.org/2000/svg">
<path d="M10 18.126C11.6072 18.126 13.1782 17.6494 14.5145 16.7565C15.8509 15.8636 16.8924 14.5945 17.5074 13.1097C18.1225 11.6249 18.2834 9.99099 17.9698 8.4147C17.6563 6.83842 16.8824 5.39051 15.7459 4.25407C14.6095 3.11763 13.1616 2.34371 11.5853 2.03017C10.009 1.71662 8.37515 1.87754 6.89032 2.49258C5.40549 3.10762 4.13639 4.14914 3.2435 5.48545C2.3506 6.82176 1.87402 8.39284 1.87402 10C1.87635 12.1544 2.73323 14.22 4.25664 15.7434C5.78005 17.2668 7.84557 18.1236 10 18.126ZM6.98594 10.1916C7.01362 10.1342 7.05698 10.0857 7.11101 10.0518C7.16504 10.0179 7.22755 9.99993 7.29134 10H9.32283V6.61418C9.32283 6.43458 9.39418 6.26234 9.52117 6.13535C9.64816 6.00836 9.8204 5.93701 10 5.93701C10.1796 5.93701 10.3518 6.00836 10.4788 6.13535C10.6058 6.26234 10.6772 6.43458 10.6772 6.61418V10H12.7087C12.7725 9.99986 12.8352 10.0178 12.8893 10.0517C12.9434 10.0857 12.9868 10.1343 13.0145 10.1918C13.0422 10.2494 13.053 10.3136 13.0458 10.3771C13.0385 10.4406 13.0134 10.5007 12.9734 10.5505L10.2648 13.9364C10.2318 13.9743 10.1912 14.0046 10.1455 14.0255C10.0998 14.0463 10.0502 14.0571 10 14.0571C9.9498 14.0571 9.90019 14.0463 9.85451 14.0255C9.80883 14.0046 9.76815 13.9743 9.73523 13.9364L7.02657 10.5505C6.98661 10.5006 6.96159 10.4405 6.9544 10.377C6.94721 10.3134 6.95814 10.2492 6.98594 10.1916Z" fill="#64748B"/>
</svg>
