<svg width="20" height="20" viewBox="0 0 20 20" fill="none" xmlns="http://www.w3.org/2000/svg">
<g clip-path="url(#clip0_5137_101)">
<path d="M16.3888 3.05554H15.8333C15.2196 3.05554 14.7222 3.553 14.7222 4.16665V15.8333C14.7222 16.447 15.2196 16.9444 15.8333 16.9444H16.3888C17.0025 16.9444 17.4999 16.447 17.4999 15.8333V4.16665C17.4999 3.553 17.0025 3.05554 16.3888 3.05554Z" stroke="currentColor" stroke-width="1.5" stroke-linecap="round" stroke-linejoin="round"/>
<path d="M10.2778 8.61108H9.7222C9.10855 8.61108 8.61108 9.10855 8.61108 9.7222V15.8333C8.61108 16.447 9.10855 16.9444 9.7222 16.9444H10.2778C10.8914 16.9444 11.3889 16.447 11.3889 15.8333V9.7222C11.3889 9.10855 10.8914 8.61108 10.2778 8.61108Z" stroke="currentColor" stroke-width="1.5" stroke-linecap="round" stroke-linejoin="round"/>
<path d="M4.16667 13.0555H3.61111C2.99746 13.0555 2.5 13.553 2.5 14.1667V15.8333C2.5 16.447 2.99746 16.9444 3.61111 16.9444H4.16667C4.78032 16.9444 5.27778 16.447 5.27778 15.8333V14.1667C5.27778 13.553 4.78032 13.0555 4.16667 13.0555Z" stroke="currentColor" stroke-width="1.5" stroke-linecap="round" stroke-linejoin="round"/>
</g>
<defs>
<clipPath id="clip0_5137_101">
<rect width="20" height="20" fill="white"/>
</clipPath>
</defs>
</svg>
