<svg width="20" height="20" viewBox="0 0 20 20" fill="none" xmlns="http://www.w3.org/2000/svg">
<g clip-path="url(#clip0_3642_1175)">
<path d="M10 1.94444C5.55112 1.94444 1.94446 5.55111 1.94446 10C1.94446 11.4656 2.34224 12.8356 3.02557 14.0189C3.50335 14.9144 2.96668 17.0322 1.94446 18.0556C3.33335 18.1311 5.16335 17.5033 5.98112 16.9744C6.52446 17.2878 7.38557 17.7033 8.51335 17.9167C8.99446 18.0078 9.49224 18.0556 10 18.0556C14.4489 18.0556 18.0556 14.4489 18.0556 10C18.0556 5.55111 14.4489 1.94444 10 1.94444Z" stroke="#64748B" stroke-width="1.5" stroke-linecap="round" stroke-linejoin="round"/>
<path d="M10 11.1111C9.38669 11.1111 8.88892 10.6122 8.88892 10C8.88892 9.38778 9.38669 8.88889 10 8.88889C10.6134 8.88889 11.1111 9.38778 11.1111 10C11.1111 10.6122 10.6134 11.1111 10 11.1111Z" fill="#64748B"/>
<path d="M6.11111 11.1111C5.49778 11.1111 5 10.6122 5 10C5 9.38778 5.49778 8.88889 6.11111 8.88889C6.72444 8.88889 7.22222 9.38778 7.22222 10C7.22222 10.6122 6.72444 11.1111 6.11111 11.1111Z" fill="#64748B"/>
<path d="M13.8889 11.1111C13.2756 11.1111 12.7778 10.6122 12.7778 10C12.7778 9.38778 13.2756 8.88889 13.8889 8.88889C14.5023 8.88889 15.0001 9.38778 15.0001 10C15.0001 10.6122 14.5023 11.1111 13.8889 11.1111Z" fill="#64748B"/>
</g>
<defs>
<clipPath id="clip0_3642_1175">
<rect width="20" height="20" fill="white"/>
</clipPath>
</defs>
</svg>
