<svg width="20" height="20" viewBox="0 0 20 20" fill="none" xmlns="http://www.w3.org/2000/svg">
<g clip-path="url(#clip0_5188_908)">
<path d="M10 1.94444C5.55112 1.94444 1.94446 5.55111 1.94446 10C1.94446 11.4656 2.34224 12.8356 3.02557 14.0189C3.50335 14.9144 2.96668 17.0322 1.94446 18.0556C3.33335 18.1311 5.16335 17.5033 5.98112 16.9744C6.52446 17.2878 7.38557 17.7033 8.51335 17.9167C8.99446 18.0078 9.49224 18.0556 10 18.0556C14.4489 18.0556 18.0556 14.4489 18.0556 10C18.0556 5.55111 14.4489 1.94444 10 1.94444Z" stroke="#64748B" stroke-width="1.5" stroke-linecap="round" stroke-linejoin="round"/>
<path fill-rule="evenodd" clip-rule="evenodd" d="M1.94446 10C1.94446 5.55111 5.55112 1.94444 10 1.94444C14.4489 1.94444 18.0556 5.55111 18.0556 10C18.0556 14.4489 14.4489 18.0556 10 18.0556C9.49224 18.0556 8.99446 18.0078 8.51335 17.9167C7.38557 17.7033 6.52446 17.2878 5.98112 16.9744C5.16335 17.5033 3.33335 18.1311 1.94446 18.0556C2.96668 17.0322 3.50335 14.9144 3.02557 14.0189C2.34224 12.8356 1.94446 11.4656 1.94446 10ZM8.8889 10C8.8889 10.6122 9.38668 11.1111 10 11.1111C10.6133 11.1111 11.1111 10.6122 11.1111 10C11.1111 9.38778 10.6133 8.88889 10 8.88889C9.38668 8.88889 8.8889 9.38778 8.8889 10ZM6.11112 11.1111C5.49779 11.1111 5.00001 10.6122 5.00001 10C5.00001 9.38778 5.49779 8.88889 6.11112 8.88889C6.72446 8.88889 7.22224 9.38778 7.22224 10C7.22224 10.6122 6.72446 11.1111 6.11112 11.1111ZM12.7778 10C12.7778 10.6122 13.2756 11.1111 13.8889 11.1111C14.5022 11.1111 15 10.6122 15 10C15 9.38778 14.5022 8.88889 13.8889 8.88889C13.2756 8.88889 12.7778 9.38778 12.7778 10Z" fill="#64748B"/>
</g>
<defs>
<clipPath id="clip0_5188_908">
<rect width="20" height="20" fill="white"/>
</clipPath>
</defs>
</svg>
