<svg width="20" height="20" viewBox="0 0 20 20" fill="none" xmlns="http://www.w3.org/2000/svg">
<g clip-path="url(#clip0_3642_1145)">
<path fill-rule="evenodd" clip-rule="evenodd" d="M1.11108 10C1.11108 5.09889 5.09886 1.11111 9.99997 1.11111C14.9011 1.11111 18.8889 5.09889 18.8889 10C18.8889 14.9011 14.9011 18.8889 9.99997 18.8889C5.09886 18.8889 1.11108 14.9011 1.11108 10ZM12.6655 12.7767C12.94 12.7767 13.21 12.6411 13.3689 12.3911C13.6155 12.0022 13.5022 11.4878 13.1144 11.24L10.4444 9.54111V6.38777C10.4444 5.92777 10.0711 5.55444 9.61108 5.55444C9.15108 5.55444 8.77775 5.92777 8.77775 6.38777V9.99888C8.77775 10.2844 8.92331 10.5489 9.16331 10.7022L12.2189 12.6467C12.3577 12.7344 12.5122 12.7767 12.6655 12.7767Z" fill="#64748B"/>
</g>
<defs>
<clipPath id="clip0_3642_1145">
<rect width="20" height="20" fill="white"/>
</clipPath>
</defs>
</svg>
