<svg width="20" height="20" viewBox="0 0 20 20" fill="none" xmlns="http://www.w3.org/2000/svg">
<path d="M9.70552 2.19154C9.94836 2.08624 10.2323 2.11668 10.4497 2.27747L10.5034 2.31654C11.9403 3.38001 13.6546 4.00479 15.4389 4.11439L16.8002 4.1974C17.2064 4.22256 17.5184 4.56711 17.5034 4.97376V4.97669C17.5033 4.97879 17.5026 4.98242 17.5024 4.98646C17.5021 4.99447 17.502 5.00625 17.5014 5.02161C17.5002 5.05286 17.498 5.09972 17.4956 5.15931C17.4907 5.27843 17.4839 5.45163 17.4741 5.66908C17.4543 6.10475 17.4242 6.71891 17.3833 7.43177C17.3016 8.85492 17.1758 10.6833 16.9995 12.2814C16.8008 14.0816 15.383 15.435 14.0551 16.3361C12.6936 17.26 11.2195 17.8475 10.5424 18.0665L10.5434 18.0675C10.1899 18.1824 9.81783 18.1824 9.46431 18.0675C8.79361 17.8504 7.33489 17.2867 5.97896 16.3732C4.64931 15.4773 3.24662 14.1282 3.01021 12.2951C2.81696 10.7965 2.68851 8.96108 2.60884 7.51087C2.56889 6.78353 2.54095 6.14855 2.52291 5.69544C2.5139 5.46917 2.50766 5.28806 2.50337 5.16322C2.50123 5.10076 2.49954 5.05156 2.49849 5.01868C2.49797 5.00247 2.49777 4.99002 2.49751 4.98158C2.49738 4.97733 2.49661 4.97402 2.49654 4.97181V4.96888C2.48482 4.5662 2.79379 4.22475 3.19576 4.1974L4.57564 4.10365C6.10126 3.99984 7.57805 3.51923 8.87251 2.70521L9.60494 2.24525L9.70552 2.19154ZM9.67037 3.97572C8.16615 4.92154 6.45095 5.48005 4.67818 5.60072L4.02193 5.64466C4.03975 6.09139 4.06769 6.71518 4.10689 7.42884C4.18605 8.8699 4.3115 10.6612 4.49751 12.1036C4.64875 13.2754 5.58803 14.3005 6.81783 15.129C8.0205 15.9393 9.33832 16.4505 9.92623 16.6408H9.92818C9.98024 16.6576 10.0275 16.6576 10.0795 16.6408C10.6606 16.4528 11.9988 15.919 13.2133 15.0949C14.4613 14.248 15.3856 13.2276 15.5083 12.1173C15.6804 10.558 15.805 8.75974 15.8862 7.34583C15.9252 6.66604 15.9526 6.07703 15.9721 5.64954L15.3471 5.61146C13.4231 5.49331 11.5695 4.85933 9.97798 3.78138L9.67037 3.97572Z" fill="currentColor"/>
<path d="M9.25317 10.3345V6.75132C9.25317 6.36965 9.58896 6.06024 10.0032 6.06024C10.4174 6.06024 10.7532 6.36965 10.7532 6.75132V10.3345C10.7532 10.7161 10.4174 11.0255 10.0032 11.0255C9.58896 11.0255 9.25317 10.7161 9.25317 10.3345Z" fill="currentColor" stroke="currentColor" stroke-width="0.3" stroke-linecap="round" stroke-linejoin="round"/>
<path d="M10.0042 14.6102H10.0032C9.45089 14.6102 9.00317 14.1625 9.00317 13.6102C9.00317 13.058 9.45089 12.6102 10.0032 12.6102H10.0042C10.5564 12.6102 11.0042 13.058 11.0042 13.6102C11.0042 14.1625 10.5564 14.6102 10.0042 14.6102Z" fill="currentColor" stroke="currentColor" stroke-width="0.3" stroke-linecap="round" stroke-linejoin="round"/>
</svg>
