<svg width="20" height="20" viewBox="0 0 20 20" fill="none" xmlns="http://www.w3.org/2000/svg">
<path d="M9.70557 2.19171C9.94825 2.08656 10.2325 2.11709 10.4497 2.27765L10.5034 2.31671C11.9402 3.37995 13.6549 4.00491 15.439 4.11456L16.8003 4.19757C17.2062 4.22292 17.5184 4.56745 17.5034 4.97394V4.97687C17.5033 4.97898 17.5026 4.9828 17.5024 4.98663C17.5021 4.99463 17.5021 5.00664 17.5015 5.02179C17.5002 5.05302 17.498 5.1001 17.4956 5.15948C17.4907 5.27858 17.484 5.45201 17.4741 5.66925C17.4544 6.10489 17.4242 6.71926 17.3833 7.43195C17.3016 8.85503 17.1759 10.6836 16.9995 12.2816C16.8007 14.0816 15.383 15.4352 14.0552 16.3362C12.6938 17.2599 11.2196 17.8476 10.5425 18.0667L10.5435 18.0677C10.1902 18.1824 9.81765 18.1824 9.46436 18.0677V18.0667C8.79354 17.8496 7.33458 17.2866 5.979 16.3734C4.64953 15.4775 3.24676 14.1281 3.01025 12.2952C2.81703 10.7968 2.68855 8.96115 2.60889 7.51105C2.56894 6.78392 2.54099 6.14868 2.52295 5.69562C2.51395 5.46958 2.5077 5.28821 2.50342 5.16339C2.50128 5.10118 2.49958 5.05171 2.49854 5.01886C2.49803 5.00289 2.49781 4.99017 2.49756 4.98175C2.49742 4.97775 2.4967 4.97418 2.49658 4.97198V4.96808C2.48493 4.56558 2.79405 4.22511 3.1958 4.19757L4.57568 4.10382C6.10109 3.99997 7.57824 3.51926 8.87256 2.70538L9.60498 2.24542L9.70557 2.19171ZM9.98096 13.264C9.34589 13.264 8.82969 13.7793 8.82959 14.4144C8.82974 15.0494 9.34592 15.5648 9.98096 15.5648C10.6157 15.5644 11.1312 15.0492 11.1313 14.4144C11.1312 13.7795 10.6157 13.2643 9.98096 13.264ZM9.97998 5.30109C9.4526 5.30123 9.0249 5.72973 9.0249 6.25714V10.3841C9.02528 10.9112 9.45283 11.339 9.97998 11.3392C10.5071 11.339 10.9357 10.9112 10.936 10.3841V6.25714C10.936 5.72975 10.5073 5.30128 9.97998 5.30109Z" fill="currentColor"/>
</svg>
