<svg width="20" height="20" viewBox="0 0 20 20" fill="none" xmlns="http://www.w3.org/2000/svg">
<g clip-path="url(#clip0_5454_46)">
<path d="M8.2002 12.8C8.86132 12.8001 9.40039 13.3378 9.40039 14.0001C9.40033 14.6624 8.86128 15.2002 8.2002 15.2003C7.53903 15.2003 7.00006 14.6625 7 14.0001C7 13.3377 7.53899 12.8 8.2002 12.8ZM11.7998 12.8C12.461 12.8 13 13.3377 13 14.0001C12.9999 14.6625 12.461 15.2003 11.7998 15.2003C11.1387 15.2002 10.5997 14.6624 10.5996 14.0001C10.5996 13.3378 11.1387 12.8001 11.7998 12.8ZM8.2002 8.79995C8.86132 8.80005 9.40039 9.3378 9.40039 10.0001C9.40031 10.6624 8.86127 11.2002 8.2002 11.2003C7.53904 11.2003 7.00008 10.6625 7 10.0001C7 9.33774 7.53899 8.79995 8.2002 8.79995ZM11.7998 8.79995C12.461 8.79995 13 9.33774 13 10.0001C12.9999 10.6625 12.461 11.2003 11.7998 11.2003C11.1387 11.2002 10.5997 10.6624 10.5996 10.0001C10.5996 9.3378 11.1387 8.80005 11.7998 8.79995ZM8.2002 4.79995C8.86132 4.80005 9.40039 5.3378 9.40039 6.00015C9.40029 6.66241 8.86126 7.20024 8.2002 7.20034C7.53905 7.20034 7.0001 6.66247 7 6.00015C7 5.33774 7.53899 4.79995 8.2002 4.79995ZM11.7998 4.79995C12.461 4.79995 13 5.33774 13 6.00015C12.9999 6.66247 12.4609 7.20034 11.7998 7.20034C11.1387 7.20025 10.5997 6.66241 10.5996 6.00015C10.5996 5.3378 11.1387 4.80005 11.7998 4.79995Z" fill="currentColor"/>
</g>
<defs>
<clipPath id="clip0_5454_46">
<rect width="20" height="20" fill="white"/>
</clipPath>
</defs>
</svg>
