<svg width="20" height="20" viewBox="0 0 20 20" fill="none" xmlns="http://www.w3.org/2000/svg">
<g clip-path="url(#clip0_3642_1178)">
<path d="M10 18.0556C14.449 18.0556 18.0556 14.449 18.0556 10C18.0556 5.55104 14.449 1.94444 10 1.94444C5.55105 1.94444 1.94446 5.55104 1.94446 10C1.94446 14.449 5.55105 18.0556 10 18.0556Z" stroke="currentColor" stroke-width="1.5" stroke-linecap="round" stroke-linejoin="round"/>
<path d="M7.5 14.4444C8.02444 13.6156 8.94889 13.0644 10 13.0644C11.0511 13.0644 11.9756 13.6156 12.5 14.4444" stroke="currentColor" stroke-width="1.5" stroke-linecap="round" stroke-linejoin="round"/>
<path d="M6.66665 11.1111C7.2803 11.1111 7.77776 10.6136 7.77776 10C7.77776 9.38635 7.2803 8.88889 6.66665 8.88889C6.053 8.88889 5.55554 9.38635 5.55554 10C5.55554 10.6136 6.053 11.1111 6.66665 11.1111Z" fill="currentColor"/>
<path d="M13.3334 11.1111C13.9471 11.1111 14.4445 10.6136 14.4445 10C14.4445 9.38635 13.9471 8.88889 13.3334 8.88889C12.7198 8.88889 12.2223 9.38635 12.2223 10C12.2223 10.6136 12.7198 11.1111 13.3334 11.1111Z" fill="currentColor"/>
</g>
<defs>
<clipPath id="clip0_3642_1178">
<rect width="20" height="20" fill="white"/>
</clipPath>
</defs>
</svg>
