<svg width="20" height="20" viewBox="0 0 20 20" fill="none" xmlns="http://www.w3.org/2000/svg">
<g clip-path="url(#clip0_3642_1107)">
<path d="M18.2634 13.9067L12.2356 3.46667C11.7689 2.65889 10.9334 2.17667 10.0001 2.17667C9.06672 2.17667 8.23116 2.65889 7.7645 3.46667L1.73672 13.9067C1.27005 14.7144 1.27005 15.6789 1.73672 16.4867C2.20339 17.2956 3.03894 17.7778 3.97227 17.7778H16.0278C16.9612 17.7778 17.7967 17.2956 18.2634 16.4867C18.7301 15.6789 18.7301 14.7144 18.2634 13.9067ZM9.16672 7.22222C9.16672 6.76222 9.54005 6.38889 10.0001 6.38889C10.4601 6.38889 10.8334 6.76222 10.8334 7.22222V11.1111C10.8334 11.5711 10.4601 11.9444 10.0001 11.9444C9.54005 11.9444 9.16672 11.5711 9.16672 11.1111V7.22222ZM10.0001 15.0767C9.38672 15.0767 8.88894 14.5778 8.88894 13.9656C8.88894 13.3533 9.38672 12.8544 10.0001 12.8544C10.6134 12.8544 11.1112 13.3533 11.1112 13.9656C11.1112 14.5778 10.6134 15.0767 10.0001 15.0767Z" fill="currentColor"/>
</g>
<defs>
<clipPath id="clip0_3642_1107">
<rect width="20" height="20" fill="white"/>
</clipPath>
</defs>
</svg>
