<svg width="20" height="20" viewBox="0 0 20 20" fill="none" xmlns="http://www.w3.org/2000/svg">
<g clip-path="url(#clip0_3642_1147)">
<path d="M15.8333 5.55555H14.4445V4.72222C14.4445 3.64999 13.5722 2.77777 12.5 2.77777H4.44446V11.1111H12.3845C12.6322 11.1111 12.7556 11.4111 12.5811 11.5855L10.7222 13.4444C11.0578 13.7178 11.4789 13.8889 11.9445 13.8889H15.8333C16.9056 13.8889 17.7778 13.0167 17.7778 11.9444V7.49999C17.7778 6.42777 16.9056 5.55555 15.8333 5.55555Z" fill="#64748B"/>
<path d="M4.16671 18.8889C3.70671 18.8889 3.33337 18.5156 3.33337 18.0556V1.94445C3.33337 1.48445 3.70671 1.11111 4.16671 1.11111C4.62671 1.11111 5.00004 1.48445 5.00004 1.94445V18.0556C5.00004 18.5156 4.62671 18.8889 4.16671 18.8889Z" fill="#64748B"/>
</g>
<defs>
<clipPath id="clip0_3642_1147">
<rect width="20" height="20" fill="white"/>
</clipPath>
</defs>
</svg>
