<svg width="20" height="20" viewBox="0 0 20 20" fill="none" xmlns="http://www.w3.org/2000/svg">
<g clip-path="url(#clip0_5188_906)">
<path d="M17.2223 13.3333H15.2778V11.3889C15.2778 10.9289 14.9045 10.5556 14.4445 10.5556C13.9845 10.5556 13.6112 10.9289 13.6112 11.3889V13.3333H11.6667C11.2067 13.3333 10.8334 13.7067 10.8334 14.1667C10.8334 14.6267 11.2067 15 11.6667 15H13.6112V16.9444C13.6112 17.4044 13.9845 17.7778 14.4445 17.7778C14.9045 17.7778 15.2778 17.4044 15.2778 16.9444V15H17.2223C17.6823 15 18.0556 14.6267 18.0556 14.1667C18.0556 13.7067 17.6823 13.3333 17.2223 13.3333Z" fill="#64748B"/>
<path d="M5.55557 9.16667C7.54993 9.16667 9.16668 7.54992 9.16668 5.55555C9.16668 3.56119 7.54993 1.94444 5.55557 1.94444C3.56121 1.94444 1.94446 3.56119 1.94446 5.55555C1.94446 7.54992 3.56121 9.16667 5.55557 9.16667Z" fill="#64748B"/>
<path d="M14.4445 9.16667C16.4388 9.16667 18.0556 7.54992 18.0556 5.55555C18.0556 3.56119 16.4388 1.94444 14.4445 1.94444C12.4501 1.94444 10.8334 3.56119 10.8334 5.55555C10.8334 7.54992 12.4501 9.16667 14.4445 9.16667Z" fill="#64748B"/>
<path d="M5.55557 18.0556C7.54993 18.0556 9.16668 16.4388 9.16668 14.4444C9.16668 12.4501 7.54993 10.8333 5.55557 10.8333C3.56121 10.8333 1.94446 12.4501 1.94446 14.4444C1.94446 16.4388 3.56121 18.0556 5.55557 18.0556Z" fill="#64748B"/>
</g>
<defs>
<clipPath id="clip0_5188_906">
<rect width="20" height="20" fill="white"/>
</clipPath>
</defs>
</svg>
