<svg width="20" height="20" viewBox="0 0 20 20" fill="none" xmlns="http://www.w3.org/2000/svg">
<g clip-path="url(#clip0_5171_76)">
<path d="M14.4445 11.3889V16.9444" stroke="#64748B" stroke-width="1.5" stroke-linecap="round" stroke-linejoin="round"/>
<path d="M17.2223 14.1667H11.6667" stroke="#64748B" stroke-width="1.5" stroke-linecap="round" stroke-linejoin="round"/>
<path d="M5.55561 8.33333C7.08973 8.33333 8.33339 7.08968 8.33339 5.55556C8.33339 4.02143 7.08973 2.77778 5.55561 2.77778C4.02149 2.77778 2.77783 4.02143 2.77783 5.55556C2.77783 7.08968 4.02149 8.33333 5.55561 8.33333Z" stroke="#64748B" stroke-width="1.5" stroke-linecap="round" stroke-linejoin="round"/>
<path d="M14.4445 8.33333C15.9787 8.33333 17.2223 7.08968 17.2223 5.55556C17.2223 4.02143 15.9787 2.77778 14.4445 2.77778C12.9104 2.77778 11.6667 4.02143 11.6667 5.55556C11.6667 7.08968 12.9104 8.33333 14.4445 8.33333Z" stroke="#64748B" stroke-width="1.5" stroke-linecap="round" stroke-linejoin="round"/>
<path d="M5.55561 17.2222C7.08973 17.2222 8.33339 15.9786 8.33339 14.4444C8.33339 12.9103 7.08973 11.6667 5.55561 11.6667C4.02149 11.6667 2.77783 12.9103 2.77783 14.4444C2.77783 15.9786 4.02149 17.2222 5.55561 17.2222Z" stroke="#64748B" stroke-width="1.5" stroke-linecap="round" stroke-linejoin="round"/>
</g>
<defs>
<clipPath id="clip0_5171_76">
<rect width="20" height="20" fill="white"/>
</clipPath>
</defs>
</svg>
