<svg width="20" height="20" viewBox="0 0 20 20" fill="none" xmlns="http://www.w3.org/2000/svg">
<g clip-path="url(#clip0_3642_1168)">
<path d="M2.07996 3.67223L2.53329 6.94445L5.8044 6.49223" stroke="#64748B" stroke-width="1.5" stroke-linecap="round" stroke-linejoin="round"/>
<path d="M18.0355 9.42667C17.7411 5.24555 14.2567 1.94444 9.99999 1.94444C6.63221 1.94444 3.74777 4.01111 2.54443 6.94444" stroke="#64748B" stroke-width="1.5" stroke-linecap="round" stroke-linejoin="round"/>
<path d="M15.6966 16.53C16.1569 16.53 16.5299 16.1569 16.5299 15.6967C16.5299 15.2364 16.1569 14.8633 15.6966 14.8633C15.2364 14.8633 14.8633 15.2364 14.8633 15.6967C14.8633 16.1569 15.2364 16.53 15.6966 16.53Z" fill="#64748B"/>
<path d="M9.99996 18.8889C10.4602 18.8889 10.8333 18.5158 10.8333 18.0556C10.8333 17.5953 10.4602 17.2222 9.99996 17.2222C9.53972 17.2222 9.16663 17.5953 9.16663 18.0556C9.16663 18.5158 9.53972 18.8889 9.99996 18.8889Z" fill="#64748B"/>
<path d="M4.3033 16.53C4.76354 16.53 5.13664 16.1569 5.13664 15.6967C5.13664 15.2364 4.76354 14.8633 4.3033 14.8633C3.84307 14.8633 3.46997 15.2364 3.46997 15.6967C3.46997 16.1569 3.84307 16.53 4.3033 16.53Z" fill="#64748B"/>
<path d="M1.94442 10.8333C2.40465 10.8333 2.77775 10.4602 2.77775 10C2.77775 9.53977 2.40465 9.16667 1.94442 9.16667C1.48418 9.16667 1.11108 9.53977 1.11108 10C1.11108 10.4602 1.48418 10.8333 1.94442 10.8333Z" fill="#64748B"/>
<path d="M17.4422 13.9156C17.9025 13.9156 18.2756 13.5425 18.2756 13.0822C18.2756 12.622 17.9025 12.2489 17.4422 12.2489C16.982 12.2489 16.6089 12.622 16.6089 13.0822C16.6089 13.5425 16.982 13.9156 17.4422 13.9156Z" fill="#64748B"/>
<path d="M13.0822 18.2756C13.5425 18.2756 13.9156 17.9025 13.9156 17.4422C13.9156 16.982 13.5425 16.6089 13.0822 16.6089C12.622 16.6089 12.2489 16.982 12.2489 17.4422C12.2489 17.9025 12.622 18.2756 13.0822 18.2756Z" fill="#64748B"/>
<path d="M6.91781 18.2756C7.37804 18.2756 7.75114 17.9025 7.75114 17.4422C7.75114 16.982 7.37804 16.6089 6.91781 16.6089C6.45757 16.6089 6.08447 16.982 6.08447 17.4422C6.08447 17.9025 6.45757 18.2756 6.91781 18.2756Z" fill="#64748B"/>
<path d="M2.5577 13.9156C3.01794 13.9156 3.39103 13.5425 3.39103 13.0822C3.39103 12.622 3.01794 12.2489 2.5577 12.2489C2.09746 12.2489 1.72437 12.622 1.72437 13.0822C1.72437 13.5425 2.09746 13.9156 2.5577 13.9156Z" fill="#64748B"/>
<path d="M13.2579 12.9478C13.099 13.1978 12.829 13.3333 12.5545 13.3333C12.4012 13.3333 12.2467 13.2911 12.1079 13.2033L9.0523 11.2589C8.8123 11.1056 8.66675 10.8411 8.66675 10.5556V6.94445C8.66675 6.48445 9.04008 6.11111 9.50008 6.11111C9.96008 6.11111 10.3334 6.48445 10.3334 6.94445V10.0978L13.0034 11.7967C13.3912 12.0444 13.5045 12.5589 13.2579 12.9478Z" fill="#64748B"/>
</g>
<defs>
<clipPath id="clip0_3642_1168">
<rect width="20" height="20" fill="white"/>
</clipPath>
</defs>
</svg>
