<svg width="20" height="20" viewBox="0 0 20 20" fill="none" xmlns="http://www.w3.org/2000/svg">
<path d="M5.46241 14.8377L2.61183 13.2787L3.54718 12.3434L5.77419 12.6552L9.24833 9.18104L2.99208 5.77219C2.68053 5.60243 2.66463 5.16096 2.96316 4.96922C3.16102 4.84214 3.39954 4.79438 3.63107 4.83547L12.0544 6.33046L15.5508 2.87859C15.8032 2.6262 16.1188 2.5 16.4977 2.5C16.8766 2.5 17.1919 2.6262 17.4437 2.87859C17.6961 3.13099 17.8223 3.44663 17.8223 3.82552C17.8223 4.20441 17.6961 4.51975 17.4437 4.77155L13.9696 8.24569L15.3438 16.4854C15.373 16.6605 15.3545 16.8402 15.2904 17.0057C15.1382 17.3984 14.5962 17.4334 14.3947 17.0636L11.119 11.0517L7.64488 14.5259L7.95666 16.7529L7.02132 17.6882L5.46241 14.8377Z" stroke="currentColor" stroke-width="1.45312" stroke-linecap="round" stroke-linejoin="round"/>
</svg>
