<svg width="20" height="20" viewBox="0 0 20 20" fill="none" xmlns="http://www.w3.org/2000/svg">
<g clip-path="url(#clip0_3642_1184)">
<path d="M10 18.0556C14.449 18.0556 18.0556 14.449 18.0556 10C18.0556 5.55105 14.449 1.94446 10 1.94446C5.55105 1.94446 1.94446 5.55105 1.94446 10C1.94446 14.449 5.55105 18.0556 10 18.0556Z" stroke="#64748B" stroke-width="1.5" stroke-linecap="round" stroke-linejoin="round"/>
<path d="M10 14.4444L10 10" stroke="#64748B" stroke-width="1.5" stroke-linecap="round" stroke-linejoin="round"/>
<path d="M10 7.50002C9.38669 7.50002 8.88892 7.00113 8.88892 6.38891C8.88892 5.77669 9.38669 5.2778 10 5.2778C10.6134 5.2778 11.1111 5.77669 11.1111 6.38891C11.1111 7.00113 10.6134 7.50002 10 7.50002Z" fill="#64748B"/>
</g>
<defs>
<clipPath id="clip0_3642_1184">
<rect width="20" height="20" fill="white"/>
</clipPath>
</defs>
</svg>
