<svg width="20" height="20" viewBox="0 0 20 20" fill="none" xmlns="http://www.w3.org/2000/svg">
<g clip-path="url(#clip0_3642_1190)">
<path d="M9.44447 7.58554C9.05336 7.77221 8.68669 8.02776 8.36336 8.35221L8.35225 8.36332C6.8178 9.89776 6.8178 12.3844 8.35225 13.9189L10.7689 16.3355C12.3034 17.87 14.79 17.87 16.3245 16.3355L16.3356 16.3244C17.87 14.79 17.87 12.3033 16.3356 10.7689L15.3011 9.73443" stroke="#64748B" stroke-width="1.5" stroke-linecap="round" stroke-linejoin="round"/>
<path d="M10.5556 12.4144C10.9467 12.2278 11.3134 11.9722 11.6367 11.6478L11.6478 11.6367C13.1823 10.1022 13.1823 7.61556 11.6478 6.08111L9.23117 3.66444C7.69673 2.13 5.21006 2.13 3.67562 3.66444L3.66451 3.67556C2.13006 5.21 2.13006 7.69667 3.66451 9.23111L4.69895 10.2656" stroke="#64748B" stroke-width="1.5" stroke-linecap="round" stroke-linejoin="round"/>
</g>
<defs>
<clipPath id="clip0_3642_1190">
<rect width="20" height="20" fill="white"/>
</clipPath>
</defs>
</svg>
