<svg width="20" height="20" viewBox="0 0 20 20" fill="none" xmlns="http://www.w3.org/2000/svg">
<g clip-path="url(#clip0_5137_98)">
<path d="M13.0555 6.38889V3.61111C13.0555 2.99778 12.5578 2.5 11.9444 2.5H4.7222C4.10886 2.5 3.61108 2.99778 3.61108 3.61111V16.3889C3.61108 17.0022 4.10886 17.5 4.7222 17.5H11.9444C12.5578 17.5 13.0555 17.0022 13.0555 16.3889V13.6111" stroke="#64748B" stroke-width="1.5" stroke-linecap="round" stroke-linejoin="round"/>
<path d="M16.1111 6.94446L19.1666 10L16.1111 13.0556" stroke="#64748B" stroke-width="1.5" stroke-linecap="round" stroke-linejoin="round"/>
<path d="M19.1667 10H12.5" stroke="#64748B" stroke-width="1.5" stroke-linecap="round" stroke-linejoin="round"/>
<path d="M3.84108 2.94223L7.53108 5.23001C7.85774 5.43223 8.05663 5.79001 8.05663 6.17445V13.8267C8.05663 14.2111 7.85774 14.5678 7.53108 14.7711L3.83997 17.06" stroke="#64748B" stroke-width="1.5" stroke-linecap="round" stroke-linejoin="round"/>
</g>
<defs>
<clipPath id="clip0_5137_98">
<rect width="20" height="20" fill="white"/>
</clipPath>
</defs>
</svg>
