<svg width="20" height="20" viewBox="0 0 20 20" fill="none" xmlns="http://www.w3.org/2000/svg">
<g clip-path="url(#clip0_3642_1152)">
<path d="M9.86665 9.80777C9.94887 9.85444 10.0511 9.85444 10.1333 9.80777L18.7744 5.04888C18.4255 3.74555 17.2455 2.77777 15.8333 2.77777H4.16665C2.75887 2.77777 1.5822 3.73888 1.22998 5.03666L9.86665 9.80777Z" fill="#64748B"/>
<path d="M10.9389 11.2667C10.6455 11.4289 10.3233 11.51 10.0011 11.51C9.67886 11.51 9.35442 11.4289 9.06108 11.2655L1.11108 6.87555V14.1667C1.11108 15.8522 2.48108 17.2222 4.16664 17.2222H15.8333C17.5189 17.2222 18.8889 15.8522 18.8889 14.1667V6.88888L10.9389 11.2667Z" fill="#64748B"/>
</g>
<defs>
<clipPath id="clip0_3642_1152">
<rect width="20" height="20" fill="white"/>
</clipPath>
</defs>
</svg>
