<svg width="20" height="20" viewBox="0 0 20 20" fill="none" xmlns="http://www.w3.org/2000/svg">
<g clip-path="url(#clip0_3642_1198)">
<path d="M8.92561 9.72335C8.24117 9.34446 7.77783 8.61557 7.77783 7.77779C7.77783 6.55002 8.77228 5.55557 10.0001 5.55557C10.3834 5.55557 10.7445 5.65224 11.0589 5.82335" stroke="#64748B" stroke-width="1.5" stroke-linecap="round" stroke-linejoin="round"/>
<path d="M5.27779 1.94446C5.27779 3.78557 3.78557 5.27779 1.94446 5.27779" stroke="#64748B" stroke-width="1.5" stroke-linecap="round" stroke-linejoin="round"/>
<path d="M14.7223 1.94446C14.7223 3.78557 16.2145 5.27779 18.0556 5.27779" stroke="#64748B" stroke-width="1.5" stroke-linecap="round" stroke-linejoin="round"/>
<path d="M5.27779 13.6111C5.27779 11.77 3.78557 10.2778 1.94446 10.2778" stroke="#64748B" stroke-width="1.5" stroke-linecap="round" stroke-linejoin="round"/>
<path d="M8.05557 13.6111H4.16668C2.9389 13.6111 1.94446 12.6167 1.94446 11.3889V4.16668C1.94446 2.9389 2.9389 1.94446 4.16668 1.94446H15.8333C17.0611 1.94446 18.0556 2.9389 18.0556 4.16668V5.27779" stroke="#64748B" stroke-width="1.5" stroke-linecap="round" stroke-linejoin="round"/>
<path d="M16.9445 11.3889H11.9445C11.3308 11.3889 10.8334 11.8864 10.8334 12.5V13.6111C10.8334 14.2248 11.3308 14.7222 11.9445 14.7222H16.9445C17.5581 14.7222 18.0556 14.2248 18.0556 13.6111V12.5C18.0556 11.8864 17.5581 11.3889 16.9445 11.3889Z" stroke="#64748B" stroke-width="1.5" stroke-linecap="round" stroke-linejoin="round"/>
<path d="M18.0556 8.05557H13.0556C12.4419 8.05557 11.9445 8.55303 11.9445 9.16668V10.2778C11.9445 10.8914 12.4419 11.3889 13.0556 11.3889H18.0556C18.6692 11.3889 19.1667 10.8914 19.1667 10.2778V9.16668C19.1667 8.55303 18.6692 8.05557 18.0556 8.05557Z" stroke="#64748B" stroke-width="1.5" stroke-linecap="round" stroke-linejoin="round"/>
<path d="M18.0556 14.7222H13.0556C12.4419 14.7222 11.9445 15.2197 11.9445 15.8333V16.9445C11.9445 17.5581 12.4419 18.0556 13.0556 18.0556H18.0556C18.6692 18.0556 19.1667 17.5581 19.1667 16.9445V15.8333C19.1667 15.2197 18.6692 14.7222 18.0556 14.7222Z" stroke="#64748B" stroke-width="1.5" stroke-linecap="round" stroke-linejoin="round"/>
</g>
<defs>
<clipPath id="clip0_3642_1198">
<rect width="20" height="20" fill="white"/>
</clipPath>
</defs>
</svg>
