<svg width="20" height="20" viewBox="0 0 20 20" fill="none" xmlns="http://www.w3.org/2000/svg">
<g clip-path="url(#clip0_3642_1104)">
<path d="M10.1301 14.8889C9.49992 14.8889 8.98844 14.3852 8.98844 13.7646C8.98844 13.1439 9.49992 12.6402 10.1301 12.6402C10.7603 12.6402 11.2718 13.1439 11.2718 13.7646C11.2718 14.3852 10.7603 14.8889 10.1301 14.8889ZM11.6536 10.2827C11.228 10.5804 11.0855 10.7028 11.027 11.0068C10.9448 11.4394 10.5612 11.7408 10.1301 11.7408C10.0744 11.7408 10.0178 11.7363 9.96116 11.7255C9.46521 11.6337 9.13914 11.1633 9.23139 10.6758C9.4305 9.63239 10.131 9.14128 10.5941 8.81747C11.0627 8.48917 11.1732 8.39652 11.1732 7.99626C11.1732 7.29827 10.5877 7.2434 10.4087 7.2434C9.50631 7.2434 9.28802 7.83435 9.21678 8.02864C9.04507 8.49636 8.51989 8.73742 8.04586 8.56652C7.57183 8.39652 7.32705 7.88023 7.49967 7.4134C7.95544 6.18023 9.04233 5.44446 10.4087 5.44446C11.6646 5.44446 12.9999 6.33853 12.9999 7.99626C12.9999 9.34007 12.1888 9.90763 11.6527 10.2827H11.6536Z" fill="#64748B"/>
<path d="M10.0556 18.2222C14.5045 18.2222 18.1111 14.6156 18.1111 10.1667C18.1111 5.71771 14.5045 2.11111 10.0556 2.11111C5.60659 2.11111 2 5.71771 2 10.1667C2 14.6156 5.60659 18.2222 10.0556 18.2222Z" stroke="#64748B" stroke-width="1.5" stroke-linecap="round" stroke-linejoin="round"/>
</g>
<defs>
<clipPath id="clip0_3642_1104">
<rect width="20" height="20" fill="white"/>
</clipPath>
</defs>
</svg>
