<svg width="20" height="20" viewBox="0 0 20 20" fill="none" xmlns="http://www.w3.org/2000/svg">
<g clip-path="url(#clip0_5404_35)">
<path d="M3 6H10" stroke="#64748B" stroke-width="1.5" stroke-linecap="round" stroke-linejoin="round"/>
<path d="M12.5 8.5C13.8807 8.5 15 7.38071 15 6C15 4.61929 13.8807 3.5 12.5 3.5C11.1193 3.5 10 4.61929 10 6C10 7.38071 11.1193 8.5 12.5 8.5Z" stroke="#64748B" stroke-width="1.5" stroke-linecap="round" stroke-linejoin="round"/>
<path d="M15 6H17" stroke="#64748B" stroke-width="1.5" stroke-linecap="round" stroke-linejoin="round"/>
<path d="M17 14H10" stroke="#64748B" stroke-width="1.5" stroke-linecap="round" stroke-linejoin="round"/>
<path d="M7.5 16.5C8.88071 16.5 10 15.3807 10 14C10 12.6193 8.88071 11.5 7.5 11.5C6.11929 11.5 5 12.6193 5 14C5 15.3807 6.11929 16.5 7.5 16.5Z" stroke="#64748B" stroke-width="1.5" stroke-linecap="round" stroke-linejoin="round"/>
<path d="M5 14H3" stroke="#64748B" stroke-width="1.5" stroke-linecap="round" stroke-linejoin="round"/>
</g>
<defs>
<clipPath id="clip0_5404_35">
<rect width="20" height="20" fill="white"/>
</clipPath>
</defs>
</svg>
