<svg width="20" height="20" viewBox="0 0 20 20" fill="none" xmlns="http://www.w3.org/2000/svg">
<path d="M16.1298 13.4097L14.8225 14.717L14.8226 7.25399C14.8226 6.81038 14.4625 6.45035 14.0189 6.45035C13.5753 6.45035 13.2153 6.81038 13.2153 7.25399L13.2153 14.7159L11.908 13.4087C11.594 13.0947 11.0851 13.0947 10.7711 13.4087C10.4572 13.7226 10.4572 14.2316 10.7711 14.5456L13.4499 17.2244C13.6064 17.3808 13.8121 17.4601 14.0178 17.4601C14.2236 17.4601 14.4293 17.3819 14.5857 17.2244L17.2645 14.5456C17.5785 14.2316 17.5785 13.7226 17.2645 13.4087C16.9506 13.0947 16.4416 13.0947 16.1277 13.4087L16.1298 13.4097Z" fill="#64748B"/>
<path d="M11.0722 11.0043C11.0722 10.5607 10.7122 10.2007 10.2686 10.2007H3.30364C2.86003 10.2007 2.5 10.5607 2.5 11.0043C2.5 11.4479 2.86003 11.808 3.30364 11.808H10.2686C10.7122 11.808 11.0722 11.4479 11.0722 11.0043Z" fill="#64748B"/>
<path d="M3.30364 8.05763H10.2686C10.7122 8.05763 11.0722 7.6976 11.0722 7.25399C11.0722 6.81038 10.7122 6.45035 10.2686 6.45035H3.30364C2.86003 6.45035 2.5 6.81038 2.5 7.25399C2.5 7.6976 2.86003 8.05763 3.30364 8.05763Z" fill="#64748B"/>
<path d="M3.30364 4.3073H14.0189C14.4625 4.3073 14.8225 3.94727 14.8225 3.50366C14.8225 3.06004 14.4625 2.70001 14.0189 2.70001H3.30364C2.86003 2.70001 2.5 3.06004 2.5 3.50366C2.5 3.94727 2.86003 4.3073 3.30364 4.3073Z" fill="#64748B"/>
</svg>
