<svg width="20" height="20" viewBox="0 0 20 20" fill="none" xmlns="http://www.w3.org/2000/svg">
<g clip-path="url(#clip0_5297_42)">
<path d="M6.68112 3.69659L5.26831 3.22566L4.79737 1.81284C4.64412 1.35645 3.88905 1.35645 3.7358 1.81284L3.26486 3.22566L1.85205 3.69659C1.62385 3.77266 1.46948 3.98632 1.46948 4.22682C1.46948 4.46732 1.62385 4.68098 1.85205 4.75704L3.26486 5.22798L3.7358 6.64079C3.81187 6.86899 4.02664 7.02336 4.26714 7.02336C4.50765 7.02336 4.7213 6.86899 4.79849 6.64079L5.26942 5.22798L6.68224 4.75704C6.91044 4.68098 7.0648 4.46732 7.0648 4.22682C7.0648 3.98632 6.90932 3.77266 6.68112 3.69659Z" fill="currentColor"/>
<path d="M10.9788 3.42813L13.1176 8.83888L18.5294 10.9788L13.1176 13.1187L10.9788 18.5295L8.83885 13.1187L3.4281 10.9788L8.83885 8.83888L10.9788 3.42813Z" stroke="currentColor" stroke-width="1.5" stroke-linecap="round" stroke-linejoin="round"/>
</g>
<defs>
<clipPath id="clip0_5297_42">
<rect width="20" height="20" fill="white"/>
</clipPath>
</defs>
</svg>
