<svg width="20" height="20" viewBox="0 0 20 20" fill="none" xmlns="http://www.w3.org/2000/svg">
<path d="M12.2847 2.77348C11.8958 2.56056 11.4204 2.57612 11.0471 2.81626L5.89917 6.11112H3.4375C2.23097 6.11112 1.25 7.09209 1.25 8.29862V11.7014C1.25 12.9079 2.23097 13.8889 3.4375 13.8889H5.89819L11.0461 17.1838C11.2454 17.3111 11.4729 17.3763 11.7024 17.3763C11.9026 17.3763 12.1029 17.3267 12.2847 17.2275C12.6746 17.0146 12.9167 16.6053 12.9167 16.161V3.84001C12.9167 3.3957 12.6746 2.98737 12.2847 2.77348Z" fill="currentColor"/>
<path d="M18.0967 8.37775L14.85 11.6245" stroke="currentColor" stroke-width="1.5" stroke-linecap="round" stroke-linejoin="round"/>
<path d="M14.85 8.37775L18.0967 11.6245" stroke="currentColor" stroke-width="1.5" stroke-linecap="round" stroke-linejoin="round"/>
</svg>
