<svg width="20" height="20" viewBox="0 0 20 20" fill="none" xmlns="http://www.w3.org/2000/svg">
<path d="M12.2847 2.77348C11.8958 2.56056 11.4204 2.57612 11.0471 2.81626L5.89917 6.11112H3.4375C2.23097 6.11112 1.25 7.09209 1.25 8.29862V11.7014C1.25 12.9079 2.23097 13.8889 3.4375 13.8889H5.89819L11.0461 17.1838C11.2454 17.3111 11.4729 17.3763 11.7024 17.3763C11.9026 17.3763 12.1029 17.3267 12.2847 17.2275C12.6746 17.0146 12.9167 16.6053 12.9167 16.161V3.84001C12.9167 3.3957 12.6746 2.98737 12.2847 2.77348Z" fill="#64748B"/>
<path d="M15.2928 8.11C15.0079 7.82514 14.5451 7.82514 14.2613 8.11C13.9764 8.39486 13.9764 8.85667 14.2613 9.14153C14.4907 9.37097 14.6171 9.67625 14.6171 10.001C14.6171 10.3257 14.4907 10.63 14.2613 10.8604C13.9764 11.1443 13.9764 11.6071 14.2613 11.8919C14.4032 12.0339 14.5899 12.1058 14.7765 12.1058C14.9632 12.1058 15.1499 12.0349 15.2918 11.8919C15.7974 11.3874 16.0754 10.7165 16.0754 10.0019C16.0754 9.28736 15.7974 8.61653 15.2918 8.11194L15.2928 8.11Z" fill="#64748B"/>
<path d="M16.1532 6.21903C15.8684 6.50389 15.8684 6.9657 16.1532 7.25056C17.6699 8.76722 17.6699 11.2347 16.1532 12.7504C15.8684 13.0353 15.8684 13.4971 16.1532 13.7819C16.2952 13.9239 16.4818 13.9958 16.6685 13.9958C16.8552 13.9958 17.0418 13.9249 17.1838 13.7819C18.1939 12.7718 18.75 11.4292 18.75 10.001C18.75 8.57278 18.1939 7.22917 17.1838 6.22C16.8989 5.93514 16.4371 5.93514 16.1522 6.22L16.1532 6.21903Z" fill="#64748B"/>
</svg>
