<svg width="20" height="20" viewBox="0 0 20 20" fill="none" xmlns="http://www.w3.org/2000/svg">
<g clip-path="url(#clip0_5393_191)">
<path fill-rule="evenodd" clip-rule="evenodd" d="M19 10C19 5.032 14.968 1 10 1C5.032 1 1 5.032 1 10C1 14.968 5.032 19 10 19C14.968 19 19 14.968 19 10ZM6.4 7.3C6.4 6.80294 6.80294 6.4 7.3 6.4H9.48571H12.7C13.1971 6.4 13.6 6.80294 13.6 7.3V12.7C13.6 13.1971 13.1971 13.6 12.7 13.6H7.3C6.80294 13.6 6.4 13.1971 6.4 12.7V11.5429V9.48571V7.3Z" fill="#64748B"/>
</g>
<defs>
<clipPath id="clip0_5393_191">
<rect width="20" height="20" fill="white"/>
</clipPath>
</defs>
</svg>
