<svg width="20" height="20" viewBox="0 0 20 20" fill="none" xmlns="http://www.w3.org/2000/svg">
<path d="M6.94442 3.05555H5.83331C4.60553 3.05555 3.61108 4.04999 3.61108 5.27777V15.8333C3.61108 17.0611 4.60553 18.0556 5.83331 18.0556H14.1666C15.3944 18.0556 16.3889 17.0611 16.3889 15.8333V5.27777C16.3889 4.04999 15.3944 3.05555 14.1666 3.05555H13.0555" stroke="#64748B" stroke-width="1.5" stroke-linecap="round" stroke-linejoin="round"/>
<path d="M11.9445 1.38889H8.05557C7.44192 1.38889 6.94446 1.88635 6.94446 2.5V3.61111C6.94446 4.22476 7.44192 4.72222 8.05557 4.72222H11.9445C12.5581 4.72222 13.0556 4.22476 13.0556 3.61111V2.5C13.0556 1.88635 12.5581 1.38889 11.9445 1.38889Z" stroke="#64748B" stroke-width="1.5" stroke-linecap="round" stroke-linejoin="round"/>
<path d="M6.94446 11.3889L8.8889 13.6111L13.0556 8.05555" stroke="#64748B" stroke-width="1.5" stroke-linecap="round" stroke-linejoin="round"/>
</svg>
