<svg width="20" height="20" viewBox="0 0 20 20" fill="none" xmlns="http://www.w3.org/2000/svg">
<g clip-path="url(#clip0_5188_907)">
<path d="M6.38885 9.16667C7.61615 9.16667 8.61107 8.17174 8.61107 6.94444C8.61107 5.71714 7.61615 4.72222 6.38885 4.72222C5.16155 4.72222 4.16663 5.71714 4.16663 6.94444C4.16663 8.17174 5.16155 9.16667 6.38885 9.16667Z" fill="#64748B" stroke="#64748B" stroke-width="1.5" stroke-linecap="round" stroke-linejoin="round"/>
<path d="M10.6767 16.8022C11.2578 16.6078 11.5989 15.9756 11.3833 15.4033C10.6222 13.3833 8.67666 11.9456 6.38999 11.9456C4.10332 11.9456 2.15777 13.3833 1.39666 15.4033C1.1811 15.9767 1.52221 16.6089 2.10332 16.8022C3.17221 17.1589 4.63777 17.5 6.3911 17.5C8.14443 17.5 9.60888 17.1589 10.6767 16.8022Z" fill="#64748B" stroke="#64748B" stroke-width="1.5" stroke-linecap="round" stroke-linejoin="round"/>
<path d="M13.3333 6.38889C14.5606 6.38889 15.5555 5.39396 15.5555 4.16667C15.5555 2.93937 14.5606 1.94444 13.3333 1.94444C12.106 1.94444 11.1111 2.93937 11.1111 4.16667C11.1111 5.39396 12.106 6.38889 13.3333 6.38889Z" fill="#64748B" stroke="#64748B" stroke-width="1.5" stroke-linecap="round" stroke-linejoin="round"/>
<path d="M14.1655 14.6967C15.5522 14.6111 16.7255 14.3233 17.6199 14.0244C18.201 13.83 18.5422 13.1978 18.3266 12.6256C17.5655 10.6056 15.6199 9.16778 13.3333 9.16778C12.2477 9.16778 11.2388 9.49222 10.3966 10.0489" fill="#64748B"/>
<path d="M14.1655 14.6967C15.5522 14.6111 16.7255 14.3233 17.6199 14.0244C18.201 13.83 18.5422 13.1978 18.3266 12.6256C17.5655 10.6056 15.6199 9.16778 13.3333 9.16778C12.2477 9.16778 11.2388 9.49222 10.3966 10.0489C11.5599 10.7563 13.9423 12.6762 14.1655 14.6967Z" stroke="#64748B" stroke-width="1.5" stroke-linecap="round" stroke-linejoin="round"/>
</g>
<defs>
<clipPath id="clip0_5188_907">
<rect width="20" height="20" fill="white"/>
</clipPath>
</defs>
</svg>
