<svg width="20" height="20" viewBox="0 0 20 20" fill="none" xmlns="http://www.w3.org/2000/svg">
<g clip-path="url(#clip0_5137_99)">
<path d="M13.6111 8.88889L18.3433 6.28666C18.7133 6.08333 19.1666 6.35111 19.1666 6.77333V13.2278C19.1666 13.65 18.7133 13.9178 18.3433 13.7144L13.6111 11.1122" stroke="#64748B" stroke-width="1.5" stroke-linecap="round" stroke-linejoin="round"/>
<path d="M11.3889 4.16666H4.16668C2.93938 4.16666 1.94446 5.16158 1.94446 6.38888V13.6111C1.94446 14.8384 2.93938 15.8333 4.16668 15.8333H11.3889C12.6162 15.8333 13.6111 14.8384 13.6111 13.6111V6.38888C13.6111 5.16158 12.6162 4.16666 11.3889 4.16666Z" stroke="#64748B" stroke-width="1.5" stroke-linecap="round" stroke-linejoin="round"/>
<path d="M5.27779 8.33332C5.73803 8.33332 6.11112 7.96023 6.11112 7.49999C6.11112 7.03975 5.73803 6.66666 5.27779 6.66666C4.81755 6.66666 4.44446 7.03975 4.44446 7.49999C4.44446 7.96023 4.81755 8.33332 5.27779 8.33332Z" fill="#64748B"/>
</g>
<defs>
<clipPath id="clip0_5137_99">
<rect width="20" height="20" fill="white"/>
</clipPath>
</defs>
</svg>
