<svg width="20" height="20" viewBox="0 0 20 20" fill="none" xmlns="http://www.w3.org/2000/svg">
<g clip-path="url(#clip0_5137_102)">
<path d="M2.5 6.1111C2.5 4.18554 3.88778 2.5411 5.78556 2.21665L13.0767 0.972209C13.5589 0.889987 14.0389 1.13332 14.2578 1.5711L14.3167 1.68888" stroke="#64748B" stroke-width="1.5" stroke-linecap="round" stroke-linejoin="round"/>
<path d="M17.5 12.5V14.7222C17.5 15.95 16.5056 16.9444 15.2778 16.9444H4.72222C3.49444 16.9444 2.5 15.95 2.5 14.7222V6.38888C2.5 5.1611 3.49444 4.16666 4.72222 4.16666H15.2778C16.5056 4.16666 17.5 5.1611 17.5 6.38888V8.6111" stroke="#64748B" stroke-width="1.5" stroke-linecap="round" stroke-linejoin="round"/>
<path d="M17.5 12.5H14.4444C13.3711 12.5 12.5 11.6289 12.5 10.5555C12.5 9.48108 13.3711 8.61108 14.4444 8.61108H17.5C18.1133 8.61108 18.6111 9.10886 18.6111 9.7222V11.3889C18.6111 12.0022 18.1133 12.5 17.5 12.5Z" stroke="#64748B" stroke-width="1.5" stroke-linecap="round" stroke-linejoin="round"/>
</g>
<defs>
<clipPath id="clip0_5137_102">
<rect width="20" height="20" fill="white"/>
</clipPath>
</defs>
</svg>
