<svg width="20" height="20" viewBox="0 0 20 20" fill="none" xmlns="http://www.w3.org/2000/svg">
<g clip-path="url(#clip0_3642_1150)">
<path fill-rule="evenodd" clip-rule="evenodd" d="M10 2C5.589 2 2 5.589 2 10C2 14.411 5.589 18 10 18C14.411 18 18 14.411 18 10C18 5.589 14.411 2 10 2ZM12.8873 7.11264C13.1802 7.40554 13.1802 7.88041 12.8873 8.17331L11.0606 10L12.8873 11.8267C13.1802 12.1196 13.1802 12.5945 12.8873 12.8874C12.5944 13.1802 12.1196 13.1802 11.8267 12.8874L9.99998 11.0607L8.17329 12.8874C7.88039 13.1802 7.40552 13.1802 7.11263 12.8874C6.81974 12.5945 6.81974 12.1196 7.11263 11.8267L8.93932 10L7.11263 8.17331C6.81973 7.88041 6.81973 7.40554 7.11263 7.11264C7.40552 6.81975 7.88039 6.81975 8.17329 7.11264L9.99998 8.93934L11.8267 7.11264C12.1196 6.81975 12.5944 6.81975 12.8873 7.11264Z" fill="#64748B"/>
</g>
<defs>
<clipPath id="clip0_3642_1150">
<rect width="20" height="20" fill="white"/>
</clipPath>
</defs>
</svg>
